<?xml version="1.0" standalone="no"?><!DOCTYPE svg PUBLIC "-//W3C//DTD SVG 1.1//EN" "http://www.w3.org/Graphics/SVG/1.1/DTD/svg11.dtd"><svg t="1525397917726" class="icon" style="" viewBox="0 0 1024 1024" version="1.1" xmlns="http://www.w3.org/2000/svg" p-id="1101" xmlns:xlink="http://www.w3.org/1999/xlink" width="48" height="48"><defs><style type="text/css"></style></defs><path d="M736.232934 118.192202h-448.922521L62.848129 506.970675 287.309389 895.749148h448.922521l224.46126-388.778473L736.232934 118.192202zM714.634073 858.33945H308.90825l-202.862399-351.368775L308.909274 155.602924h405.725823l202.862399 351.368775L714.634073 858.33945z" fill="#bfbfbf" p-id="1102"></path><path d="M709.333419 423.667365V335.520054H304.760491v297.90865h94.536356v49.240693h365.665285v-259.002032h-55.628713zM343.668133 594.521062V374.427696h326.757643v49.240693H399.296847v170.852673h-55.628714z" fill="#1296db" p-id="1103"></path><path d="M500.244773 616.190571l-64.314333-64.314333 64.652215-64.651191 23.167453 23.167453-41.483738 41.483738 41.145856 41.146879zM666.117267 616.190571l-23.167453-23.167454 41.145855-41.146879-41.482714-41.483738 23.16643-23.167453 64.651191 64.651191zM591.506743 612.972499h-32.248292l20.477707-125.251892h32.248292z" fill="#FFFFFF" p-id="1104"></path></svg>