<?xml version="1.0" standalone="no"?><!DOCTYPE svg PUBLIC "-//W3C//DTD SVG 1.1//EN" "http://www.w3.org/Graphics/SVG/1.1/DTD/svg11.dtd"><svg t="1525397978001" class="icon" style="" viewBox="0 0 1024 1024" version="1.1" xmlns="http://www.w3.org/2000/svg" p-id="2309" xmlns:xlink="http://www.w3.org/1999/xlink" width="48" height="48"><defs><style type="text/css"></style></defs><path d="M736.232934 118.192202h-448.922521L62.848129 506.970675 287.309389 895.749148h448.922521l224.46126-388.778473L736.232934 118.192202zM714.634073 858.33945H308.90825l-202.862399-351.368775L308.909274 155.602924h405.725823l202.862399 351.368775L714.634073 858.33945z" fill="#bfbfbf" p-id="2310"></path><path d="M680.117875 521.647048c-14.008799 0-26.808389 5.145024-36.64076 13.634057l-136.371287-77.926889A93.415201 93.415201 0 0 0 511.771674 428.121266a93.632265 93.632265 0 0 0-3.184284-24.257891l95.178332-47.589166c10.092438 9.734078 23.812501 15.731998 38.941431 15.731998 30.991985 0 56.115059-25.124098 56.115059-56.115059 0-30.991985-25.124098-56.115059-56.115059-56.115059-30.991985 0-56.115059 25.124098-56.115059 56.115059 0 2.346745 0.16075 4.653559 0.44027 6.924537l-95.186523 47.593261c-17.122434-21.805686-43.725023-35.813461-73.599949-35.813461-51.652967 0-93.525781 41.872814-93.525781 93.525781 0 39.839378 24.913178 73.854896 60.006848 87.333323l-13.646344 81.87499c-26.33945 4.618747-46.361528 27.590638-46.361528 55.252948 0 30.991985 25.124098 56.115059 56.11506 56.115059 30.991985 0 56.115059-25.124098 56.115059-56.115059 0-21.142208-11.696866-39.544499-28.96674-49.112708l13.648391-81.891372c26.64252-0.949142 50.444782-13.038156 66.891453-31.755803l136.38562 77.934055a56.411986 56.411986 0 0 0-0.907162 10.004384c0 30.991985 25.124098 56.115059 56.115059 56.115059 30.991985 0 56.115059-25.124098 56.115059-56.115059 0.002048-30.989937-25.121026-56.114035-56.113011-56.114035z" fill="#1296db" p-id="2311"></path></svg>