<?xml version="1.0" standalone="no"?><!DOCTYPE svg PUBLIC "-//W3C//DTD SVG 1.1//EN" "http://www.w3.org/Graphics/SVG/1.1/DTD/svg11.dtd"><svg t="1528362557677" class="icon" style="" viewBox="0 0 1024 1024" version="1.1" xmlns="http://www.w3.org/2000/svg" p-id="20040" xmlns:xlink="http://www.w3.org/1999/xlink" width="48" height="48"><defs><style type="text/css"></style></defs><path d="M645.12 652.8m-38.4 0a38.4 38.4 0 1 0 76.8 0 38.4 38.4 0 1 0-76.8 0Z" fill="#ffa30c" p-id="20041" data-spm-anchor-id="a313x.7781069.0.i3" class=""></path><path d="M935.68 523.52c-3.84-57.6-3.84-107.52-8.96-156.16C911.36 232.96 851.2 128 718.08 78.08c-154.88-57.6-309.76-49.92-460.8 12.8-83.2 34.56-143.36 99.84-157.44 189.44-11.52 74.24-14.08 153.6-5.12 227.84 15.36 111.36 112.64 167.68 217.6 128 37.12-14.08 66.56-49.92 94.72-80.64 58.88-61.44 162.56-81.92 254.72-47.36 80.64 30.72 85.76 98.56 84.48 168.96 0 32 1.28 64-2.56 96-8.96 57.6-35.84 102.4-99.84 104.96-5.12 0-8.96 0-14.08-2.56-55.04-25.6-10.24-57.6-10.24-57.6 2.56-1.28 3.84-2.56 6.4-2.56 33.28-11.52 58.88-30.72 39.68-62.72-10.24-17.92-47.36-30.72-70.4-28.16-62.72 6.4-104.96 64-102.4 126.72 2.56 67.84 52.48 120.32 125.44 131.84 113.92 19.2 211.2-32 263.68-135.68 52.48-107.52 53.76-220.16 53.76-323.84zM651.52 396.8c-24.32 0-44.8-20.48-44.8-44.8S627.2 307.2 651.52 307.2s44.8 20.48 44.8 44.8-19.2 44.8-44.8 44.8z" fill="#218bf6" p-id="20042" data-spm-anchor-id="a313x.7781069.0.i0" class=""></path></svg>