<?xml version="1.0" standalone="no"?><!DOCTYPE svg PUBLIC "-//W3C//DTD SVG 1.1//EN" "http://www.w3.org/Graphics/SVG/1.1/DTD/svg11.dtd"><svg t="1525397966246" class="icon" style="" viewBox="0 0 1024 1024" version="1.1" xmlns="http://www.w3.org/2000/svg" p-id="2051" xmlns:xlink="http://www.w3.org/1999/xlink" width="48" height="48"><defs><style type="text/css"></style></defs><path d="M736.232934 118.192202h-448.922521L62.848129 506.970675 287.309389 895.749148h448.922521l224.46126-388.778473L736.232934 118.192202zM714.634073 858.33945H308.90825l-202.862399-351.368775L308.909274 155.602924h405.725823l202.862399 351.368775L714.634073 858.33945z" fill="#bfbfbf" p-id="2052"></path><path d="M662.85312 610.442478c-12.728942 0-23.649703 7.743645-28.309405 18.777033H461.050442c-14.551458-27.05105-26.690643-61.723903-29.081415-103.976578h158.419633c7.770266 24.86096 30.975603 42.903867 58.3973 42.903867 33.786168 0 61.1751-27.388932 61.1751-61.175101s-27.388932-61.1751-61.1751-61.1751c-27.421697 0-50.627034 18.042907-58.3973 42.903867H432.202473c2.239237-34.885821 10.065817-66.328315 23.372231-94.007008h185.757371c5.542291 5.445022 13.137473 8.807462 21.521045 8.807462 16.964756 0 30.71656-13.751804 30.71656-30.71656s-13.751804-30.71656-30.71656-30.71656c-1.298287 0-2.575072 0.090102-3.831378 0.246757-13.872622-12.365463-29.236022-23.045611-45.674501-31.621675-31.809045-16.593086-67.706465-25.363687-103.809685-25.363687-60.030397 0-116.469003 23.37735-158.917241 65.825588s-65.825588 98.886845-65.825588 158.917241c0 60.03142 23.37735 116.469003 65.825588 158.917241s98.886845 65.825588 158.917241 65.825588c35.87387 0 71.567536-8.665142 103.220951-25.05857 19.301262-9.996192 37.156798-22.877694 52.844769-38.009695 15.67466-1.392484 27.96538-14.551458 27.96538-30.58755 0.001024-16.964756-13.75078-30.71656-30.715536-30.71656z m-12.738157-129.068936c14.136785 0 25.597133 11.460348 25.597133 25.597133s-11.460348 25.597133-25.597133 25.597133-25.597133-11.460348-25.597133-25.597133 11.460348-25.597133 25.597133-25.597133zM513.548115 323.27029c28.994385 0.595901 56.657718 7.645352 82.277377 21.010127a186.23655 186.23655 0 0 1 22.870526 14.133713H477.797111c14.44907-18.847681 28.616571-30.120658 35.751004-35.14384z m-61.301039 8.937495a228.180012 228.180012 0 0 0-5.347753 6.913273 236.257443 236.257443 0 0 0-12.876382 19.293072h-33.518933a186.411634 186.411634 0 0 1 51.743068-26.206345z m-89.596109 62.484649h53.449886c-13.101637 32.932248-18.504679 65.903403-20.201258 94.007008h-71.992449c4.028989-35.21756 17.87499-67.496568 38.743821-94.007008z m-39.354056 130.549475h72.342617c2.065177 41.221623 12.342938 76.021438 24.988946 103.976579h-54.926329c-23.824788-28.710768-39.230166-64.643-42.405234-103.976579z m82.631641 140.254883h34.400499a277.601933 277.601933 0 0 0 6.281537 9.369575 283.23023 283.23023 0 0 0 11.067176 14.735758 186.123922 186.123922 0 0 1-51.749212-24.105333z m189.40957 10.618715c-25.130241 13.014606-52.213032 19.97805-80.575679 20.738797-6.335802-5.367207-17.624138-15.827219-29.890285-31.357512h128.39522a185.60686 185.60686 0 0 1-17.929256 10.618715z" fill="#1296db" p-id="2053"></path></svg>