<?xml version="1.0" standalone="no"?><!DOCTYPE svg PUBLIC "-//W3C//DTD SVG 1.1//EN" "http://www.w3.org/Graphics/SVG/1.1/DTD/svg11.dtd"><svg t="1525397960155" class="icon" style="" viewBox="0 0 1024 1024" version="1.1" xmlns="http://www.w3.org/2000/svg" p-id="1922" xmlns:xlink="http://www.w3.org/1999/xlink" width="48" height="48"><defs><style type="text/css"></style></defs><path d="M736.232934 118.192202h-448.922521L62.848129 506.970675 287.309389 895.749148h448.922521l224.46126-388.778473L736.232934 118.192202zM714.634073 858.33945H308.90825l-202.862399-351.368775L308.909274 155.602924h405.725823l202.862399 351.368775L714.634073 858.33945z" fill="#bfbfbf" p-id="1923"></path><path d="M670.152399 463.141216l100.871134-50.435567-260.953557-130.475755-260.952533 130.475755 100.871134 50.435567-100.871134 50.435567 89.913514 44.956757-89.913514 44.956757 260.952533 130.475755 260.953557-130.475755-89.913513-44.956757 89.913513-44.956757-100.871134-50.435567z m-160.082423 80.041212l28.699506-14.349753 59.401731 29.700865-88.100213 44.050619-88.100213-44.050619 59.400707-29.700865 28.698482 14.349753z m-178.013726-29.605645l59.401731-29.700865 48.44411 24.222055-59.400707 29.700866-48.445134-24.222056z m356.027453 89.913514L510.069976 692.497672l-178.013726-89.007375 48.44411-24.222055 129.569616 64.784296 129.569616-64.784296 48.444111 24.222055zM580.238885 508.097973l48.444111-24.222055 59.401731 29.700865-48.444111 24.222056-59.401731-29.700866z" fill="#1296db" p-id="1924"></path></svg>