<?xml version="1.0" encoding="utf-8"?>
<!-- Generator: Adobe Illustrator 21.0.0, SVG Export Plug-In . SVG Version: 6.00 Build 0)  -->
<svg version="1.1" id="skye-logo" xmlns="http://www.w3.org/2000/svg" xmlns:xlink="http://www.w3.org/1999/xlink" x="0px" y="0px"
	 viewBox="0 0 93 38" style="enable-background:new 0 0 93 38;" xml:space="preserve">
<style type="text/css">
	.st0{fill:#25466B;}
	.st1{fill:none;}
	.st2{clip-path:url(#SVGID_2_);fill:url(#SVGID_3_);}
	.st3{clip-path:url(#SVGID_5_);fill:url(#SVGID_6_);}
	.st4{clip-path:url(#SVGID_8_);fill:url(#SVGID_9_);}
</style>
<title>Shape Copy</title>
<desc>Created with Sketch.</desc>
<g>
	<g>
		<path class="st0" d="M56,7.8l2.5,0l0,8.6l3.8-4.5l3.1,0l-4.3,4.9l6.9,9.1l-3.1,0l-6.3-8.3l0,8.3l-2.5,0L56,7.8z"/>
		<path class="st0" d="M52.5,16.9c-0.6-0.5-1.9-1-3.8-1.5l-1.8-0.5c-0.8-0.2-1.3-0.4-1.7-0.7c-0.7-0.4-1-1-1-1.8
			c0-0.7,0.3-1.2,0.8-1.6c0.5-0.4,1.3-0.6,2.3-0.6c1.5,0,2.6,0.4,3.2,1.1c0.2,0.3,0.4,0.6,0.5,1l2.4-0.7c-0.2-0.5-0.4-1.1-0.7-1.6
			c-1-1.5-2.7-2.3-5.1-2.3c-1.8,0-3.3,0.5-4.4,1.4c-1.1,1-1.6,2.3-1.6,3.9c0,1.4,0.5,2.4,1.7,3.2c0.6,0.4,1.6,0.9,3,1.2l2.1,0.6
			c1.1,0.3,1.9,0.6,2.3,0.8c0.6,0.4,0.9,0.9,0.9,1.7c0,1-0.4,1.7-1.1,2.1c-0.8,0.5-1.6,0.7-2.6,0.7c-1.7,0-2.8-0.5-3.5-1.4
			c-0.2-0.3-0.4-0.7-0.5-1.2l-2.4,0.8c0.2,0.9,0.7,1.8,1.3,2.5c1,1.2,2.6,1.7,5,1.8c2.2,0,3.8-0.5,4.9-1.6c1.1-1.1,1.6-2.4,1.6-3.9
			C54,18.7,53.5,17.6,52.5,16.9z"/>
		<polyline class="st0" points="71.3,30.7 79.2,11.8 76.3,11.8 73.3,18.8 70,11.8 67,11.8 71.9,21.9 69,29.7 		"/>
		<path class="st0" d="M85.2,23.8c-1.7,0-3.2-1.5-3.7-3.6l9.1-2.7l0,0l0.5-0.2l0-0.1c0-0.4-0.1-0.7-0.2-1.1c-0.2-0.9-0.6-1.6-1-2.3
			c-0.5-0.7-1-1.2-1.9-1.6c-0.9-0.4-1.8-0.6-2.7-0.6c-1.9,0-3.4,0.7-4.5,1.9c-1.2,1.3-1.7,3-1.7,5c0,2.1,0.6,4.1,1.7,5.2
			c1.2,1.2,2.6,1.7,4.2,1.7c0.7,0,1.3-0.1,1.8-0.2c1-0.2,1.8-0.7,2.5-1.3c0.4-0.4,0.8-0.8,1.1-1.4c0.3-0.6,0.5-1.5,0.6-2.3l-2.1,0
			C88.3,22.4,86.8,23.8,85.2,23.8z M82.4,15.2C82.5,15.2,82.5,15.2,82.4,15.2c0.1-0.1,0.1-0.1,0.1-0.1c0.7-0.8,1.6-1.4,2.6-1.4
			c1.2,0,2.3,0.8,3,1.9l-6.8,2C81.6,16.8,81.9,15.9,82.4,15.2C82.4,15.3,82.4,15.3,82.4,15.2z"/>
	</g>
</g>
<g>
	<ellipse transform="matrix(0.2945 -0.9556 0.9556 0.2945 -0.7369 26.8923)" class="st1" cx="17.8" cy="13.9" rx="16.2" ry="15.8"/>
	<g>
		<defs>
			<path id="SVGID_1_" d="M30.2,20.7c-2.5,7.7-10.8,12.1-18.7,9.8S-0.7,20,1.8,12.3S12.6,0.1,20.5,2.5S32.7,12.9,30.2,20.7z"/>
		</defs>
		<clipPath id="SVGID_2_">
			<use xlink:href="#SVGID_1_"  style="overflow:visible;"/>
		</clipPath>
		
			<linearGradient id="SVGID_3_" gradientUnits="userSpaceOnUse" x1="41.2238" y1="-28.9925" x2="50.9886" y2="-41.6852" gradientTransform="matrix(0.9994 3.478518e-02 -3.478518e-02 0.9994 -36.1342 47.3794)">
			<stop  offset="0" style="stop-color:#12BBD6"/>
			<stop  offset="0.2668" style="stop-color:#16B0DE"/>
			<stop  offset="0.7398" style="stop-color:#1F91F2"/>
			<stop  offset="1" style="stop-color:#257EFF"/>
		</linearGradient>
		<path class="st2" d="M22.4,14.4c-0.1-0.9-1-1.7-1.7-2.3c-0.5-1.6-5.8-5.6-8.5-6.8C10.4,4.4,8,3.9,8,3.9c-5.3,0.5-9,13-9,13l16,7.4
			l0.7-0.4c-2.4-1.6-4.6-7-2.6-8.4c1.3-0.9,3.7-1,5.1-0.6c1.6,0.4,2.6,0.9,2.4,1.9C21.7,16.6,22.6,15.4,22.4,14.4z M15.2,9.8
			c1.5,0.8,2.9,1.6,4.2,2.6C17.7,13.7,15.6,12,15.2,9.8z"/>
	</g>
	<g>
		<defs>
			
				<ellipse id="SVGID_4_" transform="matrix(0.2945 -0.9556 0.9556 0.2945 -2.9462 26.908)" cx="16.8" cy="15.4" rx="16.2" ry="15.8"/>
		</defs>
		<clipPath id="SVGID_5_">
			<use xlink:href="#SVGID_4_"  style="overflow:visible;"/>
		</clipPath>
		
			<linearGradient id="SVGID_6_" gradientUnits="userSpaceOnUse" x1="-179.3122" y1="262.5286" x2="-171.8213" y2="250.9844" gradientTransform="matrix(0.9841 -0.1776 0.1776 0.9841 131.0316 -258.6794)">
			<stop  offset="0" style="stop-color:#12BBD6"/>
			<stop  offset="0.2307" style="stop-color:#14B4DB"/>
			<stop  offset="0.561" style="stop-color:#1AA1E7"/>
			<stop  offset="0.9497" style="stop-color:#2483FC"/>
			<stop  offset="1" style="stop-color:#257EFF"/>
		</linearGradient>
		<path class="st3" d="M-7.2,14.4l26.5,10.9l-4.8,5.4c-1.3-0.6-12.2-0.5-12.2-0.5l-4.2-4.6l7.1,0.9L-3.5,24l-1.9-2.8L8.9,24
			l-14.4-5.6L-7.2,14.4z"/>
	</g>
	<g>
		<defs>
			
				<ellipse id="SVGID_7_" transform="matrix(0.2945 -0.9556 0.9556 0.2945 -5.072 30.2178)" cx="17.9" cy="18.5" rx="16.2" ry="15.8"/>
		</defs>
		<clipPath id="SVGID_8_">
			<use xlink:href="#SVGID_7_"  style="overflow:visible;"/>
		</clipPath>
		<linearGradient id="SVGID_9_" gradientUnits="userSpaceOnUse" x1="6.4204" y1="24.471" x2="36.2173" y2="24.471">
			<stop  offset="0" style="stop-color:#FFE253"/>
			<stop  offset="0.2819" style="stop-color:#FFD140"/>
			<stop  offset="0.8529" style="stop-color:#FFA50E"/>
			<stop  offset="1" style="stop-color:#FF9900"/>
		</linearGradient>
		<path class="st4" d="M36.2,12c0,0-28.5,13.6-29.8,21.6l9.3,3.2c1.3-1.1,13.9-3.9,13.9-3.9l3.1-7.1l-8.3,2.5l9.8-4.8l1.4-4.8
			l-15.1,7.8l14.9-9.5L36.2,12z"/>
	</g>
</g>
</svg>
